<svg xmlns="http://www.w3.org/2000/svg" viewBox="0 0 1200 630" width="1200" height="630">
  <defs>
    <linearGradient id="bg" x1="0%" y1="0%" x2="100%" y2="100%">
      <stop offset="0%"   stop-color="#0f0a1e"/>
      <stop offset="40%"  stop-color="#1a0a2e"/>
      <stop offset="100%" stop-color="#0a0a1e"/>
    </linearGradient>
    <linearGradient id="gold" x1="0%" y1="0%" x2="100%" y2="0%">
      <stop offset="0%"   stop-color="#f59e0b"/>
      <stop offset="50%"  stop-color="#fcd34d"/>
      <stop offset="100%" stop-color="#f59e0b"/>
    </linearGradient>
    <linearGradient id="purple" x1="0%" y1="0%" x2="100%" y2="0%">
      <stop offset="0%"   stop-color="#a855f7"/>
      <stop offset="50%"  stop-color="#d946ef"/>
      <stop offset="100%" stop-color="#a855f7"/>
    </linearGradient>
    <linearGradient id="petal1" x1="0%" y1="0%" x2="100%" y2="100%">
      <stop offset="0%"   stop-color="#f9a8d4"/>
      <stop offset="100%" stop-color="#ec4899"/>
    </linearGradient>
    <linearGradient id="petal2" x1="0%" y1="0%" x2="100%" y2="100%">
      <stop offset="0%"   stop-color="#fde68a"/>
      <stop offset="100%" stop-color="#f59e0b"/>
    </linearGradient>
    <radialGradient id="glow1" cx="50%" cy="50%" r="50%">
      <stop offset="0%"   stop-color="#a855f7" stop-opacity="0.4"/>
      <stop offset="100%" stop-color="#a855f7" stop-opacity="0"/>
    </radialGradient>
    <radialGradient id="glow2" cx="50%" cy="50%" r="50%">
      <stop offset="0%"   stop-color="#f59e0b" stop-opacity="0.3"/>
      <stop offset="100%" stop-color="#f59e0b" stop-opacity="0"/>
    </radialGradient>
    <filter id="blur1">
      <feGaussianBlur stdDeviation="30"/>
    </filter>
    <filter id="blur2">
      <feGaussianBlur stdDeviation="15"/>
    </filter>
    <filter id="glow">
      <feGaussianBlur stdDeviation="3" result="blur"/>
      <feMerge><feMergeNode in="blur"/><feMergeNode in="SourceGraphic"/></feMerge>
    </filter>
  </defs>

  <!-- Background -->
  <rect width="1200" height="630" fill="url(#bg)"/>

  <!-- Glow orbs -->
  <ellipse cx="200"  cy="200" rx="250" ry="250" fill="url(#glow1)" filter="url(#blur1)"/>
  <ellipse cx="1000" cy="430" rx="200" ry="200" fill="url(#glow2)" filter="url(#blur1)"/>
  <ellipse cx="600"  cy="315" rx="150" ry="150" fill="url(#glow1)" filter="url(#blur1)" opacity="0.3"/>

  <!-- Stars -->
  <g fill="white" opacity="0.6">
    <circle cx="50"   cy="50"  r="1.5"/>
    <circle cx="150"  cy="30"  r="1"/>
    <circle cx="300"  cy="80"  r="1.5"/>
    <circle cx="450"  cy="20"  r="1"/>
    <circle cx="600"  cy="60"  r="2"/>
    <circle cx="750"  cy="35"  r="1.5"/>
    <circle cx="900"  cy="70"  r="1"/>
    <circle cx="1050" cy="25"  r="1.5"/>
    <circle cx="1150" cy="55"  r="1"/>
    <circle cx="100"  cy="120" r="1"/>
    <circle cx="350"  cy="150" r="1.5"/>
    <circle cx="700"  cy="130" r="1"/>
    <circle cx="950"  cy="160" r="1.5"/>
    <circle cx="1100" cy="110" r="1"/>
    <circle cx="80"   cy="500" r="1.5"/>
    <circle cx="200"  cy="570" r="1"/>
    <circle cx="400"  cy="590" r="1.5"/>
    <circle cx="650"  cy="580" r="1"/>
    <circle cx="850"  cy="560" r="2"/>
    <circle cx="1050" cy="590" r="1.5"/>
    <circle cx="1180" cy="520" r="1"/>
  </g>

  <!-- Sparkles -->
  <g filter="url(#glow)" opacity="0.8">
    <text x="60"   y="200" font-size="18" fill="#fcd34d">✦</text>
    <text x="1100" y="150" font-size="14" fill="#a855f7">✦</text>
    <text x="1050" cy="400" font-size="20" fill="#f9a8d4">✦</text>
    <text x="120"  y="420" font-size="12" fill="#fcd34d">✦</text>
    <text x="1130" y="400" font-size="16" fill="#fcd34d">✦</text>
  </g>

  <!-- Rose LEFT — большая роза -->
  <g transform="translate(130, 315)">
    <!-- стебель -->
    <path d="M0,180 Q-20,100 -10,0" stroke="#16a34a" stroke-width="4" fill="none"/>
    <path d="M-15,80  Q-50,60 -55,30" stroke="#16a34a" stroke-width="3" fill="none"/>
    <ellipse cx="-52" cy="26" rx="18" ry="10" fill="#16a34a" transform="rotate(-40,-52,26)"/>
    <!-- лепестки -->
    <ellipse cx="0"   cy="-10" rx="28" ry="18" fill="url(#petal1)" opacity="0.9" transform="rotate(0)"/>
    <ellipse cx="20"  cy="5"   rx="25" ry="16" fill="url(#petal1)" opacity="0.85" transform="rotate(45,20,5)"/>
    <ellipse cx="-20" cy="5"   rx="25" ry="16" fill="url(#petal1)" opacity="0.85" transform="rotate(-45,-20,5)"/>
    <ellipse cx="15"  cy="-25" rx="22" ry="14" fill="#fda4af" opacity="0.9" transform="rotate(20,15,-25)"/>
    <ellipse cx="-15" cy="-25" rx="22" ry="14" fill="#fda4af" opacity="0.9" transform="rotate(-20,-15,-25)"/>
    <ellipse cx="0"   cy="-30" rx="18" ry="22" fill="#fb7185" opacity="0.95"/>
    <!-- сердцевина -->
    <circle cx="0" cy="-12" r="10" fill="#e11d48" opacity="0.8"/>
    <circle cx="0" cy="-14" r="6"  fill="#9f1239" opacity="0.9"/>
  </g>

  <!-- Rose RIGHT — большая роза -->
  <g transform="translate(1070, 315)">
    <path d="M0,180 Q20,100 10,0" stroke="#16a34a" stroke-width="4" fill="none"/>
    <path d="M15,80 Q50,60 55,30" stroke="#16a34a" stroke-width="3" fill="none"/>
    <ellipse cx="52" cy="26" rx="18" ry="10" fill="#16a34a" transform="rotate(40,52,26)"/>
    <ellipse cx="0"   cy="-10" rx="28" ry="18" fill="url(#petal2)" opacity="0.9"/>
    <ellipse cx="20"  cy="5"   rx="25" ry="16" fill="url(#petal2)" opacity="0.85" transform="rotate(45,20,5)"/>
    <ellipse cx="-20" cy="5"   rx="25" ry="16" fill="url(#petal2)" opacity="0.85" transform="rotate(-45,-20,5)"/>
    <ellipse cx="15"  cy="-25" rx="22" ry="14" fill="#fde68a" opacity="0.9" transform="rotate(20,15,-25)"/>
    <ellipse cx="-15" cy="-25" rx="22" ry="14" fill="#fde68a" opacity="0.9" transform="rotate(-20,-15,-25)"/>
    <ellipse cx="0"   cy="-30" rx="18" ry="22" fill="#fbbf24" opacity="0.95"/>
    <circle cx="0" cy="-12" r="10" fill="#d97706" opacity="0.8"/>
    <circle cx="0" cy="-14" r="6"  fill="#92400e" opacity="0.9"/>
  </g>

  <!-- Small roses decorative -->
  <g transform="translate(280, 530) scale(0.6)">
    <ellipse cx="0" cy="-10" rx="28" ry="18" fill="#fda4af" opacity="0.8"/>
    <ellipse cx="20" cy="5" rx="25" ry="16" fill="#fb7185" opacity="0.75" transform="rotate(45,20,5)"/>
    <ellipse cx="-20" cy="5" rx="25" ry="16" fill="#fb7185" opacity="0.75" transform="rotate(-45,-20,5)"/>
    <ellipse cx="0" cy="-30" rx="18" ry="22" fill="#f43f5e" opacity="0.9"/>
    <circle cx="0" cy="-14" r="7" fill="#9f1239"/>
  </g>
  <g transform="translate(920, 530) scale(0.6)">
    <ellipse cx="0" cy="-10" rx="28" ry="18" fill="#a855f7" opacity="0.8"/>
    <ellipse cx="20" cy="5" rx="25" ry="16" fill="#9333ea" opacity="0.75" transform="rotate(45,20,5)"/>
    <ellipse cx="-20" cy="5" rx="25" ry="16" fill="#9333ea" opacity="0.75" transform="rotate(-45,-20,5)"/>
    <ellipse cx="0" cy="-30" rx="18" ry="22" fill="#7c3aed" opacity="0.9"/>
    <circle cx="0" cy="-14" r="7" fill="#4c1d95"/>
  </g>

  <!-- Decorative line top -->
  <line x1="200" y1="95" x2="500" y2="95" stroke="url(#gold)" stroke-width="1" opacity="0.5"/>
  <line x1="700" y1="95" x2="1000" y2="95" stroke="url(#gold)" stroke-width="1" opacity="0.5"/>
  <circle cx="600" cy="95" r="4" fill="#fcd34d" opacity="0.8"/>
  <circle cx="510" cy="95" r="2" fill="#fcd34d" opacity="0.5"/>
  <circle cx="690" cy="95" r="2" fill="#fcd34d" opacity="0.5"/>

  <!-- 8 МАРТА — главный текст -->
  <text x="600" y="175"
    font-family="Georgia, serif"
    font-size="96"
    font-weight="bold"
    fill="url(#gold)"
    text-anchor="middle"
    filter="url(#glow)"
    letter-spacing="8">8 МАРТА</text>

  <!-- Subtitle -->
  <text x="600" y="225"
    font-family="Georgia, serif"
    font-size="22"
    fill="url(#purple)"
    text-anchor="middle"
    letter-spacing="6"
    opacity="0.9">МЕЖДУНАРОДНЫЙ ЖЕНСКИЙ ДЕНЬ</text>

  <!-- Decorative line middle -->
  <line x1="300" y1="248" x2="530" y2="248" stroke="url(#purple)" stroke-width="1" opacity="0.4"/>
  <line x1="670" y1="248" x2="900" y2="248" stroke="url(#purple)" stroke-width="1" opacity="0.4"/>
  <text x="600" y="254" font-size="14" fill="#d946ef" text-anchor="middle">✿</text>

  <!-- Main greeting -->
  <text x="600" y="310"
    font-family="Georgia, serif"
    font-size="32"
    fill="white"
    text-anchor="middle"
    opacity="0.95"
    letter-spacing="1">Дорогая Наталья Мельхер,</text>

  <text x="600" y="358"
    font-family="Georgia, serif"
    font-size="24"
    fill="#fde68a"
    text-anchor="middle"
    opacity="0.9"
    font-style="italic">пусть каждое слово расцветает весной,</text>

  <text x="600" y="395"
    font-family="Georgia, serif"
    font-size="24"
    fill="#fde68a"
    text-anchor="middle"
    opacity="0.9"
    font-style="italic">а вдохновение никогда не угасает!</text>

  <!-- Emoji row -->
  <text x="600" y="445"
    font-size="36"
    text-anchor="middle"
    letter-spacing="12">🌹💜✨🌸💫🌺💝</text>

  <!-- Bottom decorative line -->
  <line x1="200" y1="475" x2="500" y2="475" stroke="url(#gold)" stroke-width="1" opacity="0.4"/>
  <line x1="700" y1="475" x2="1000" y2="475" stroke="url(#gold)" stroke-width="1" opacity="0.4"/>
  <circle cx="600" cy="475" r="3" fill="#fcd34d" opacity="0.6"/>

  <!-- Author signature -->
  <text x="600" y="515"
    font-family="Georgia, serif"
    font-size="18"
    fill="#a855f7"
    text-anchor="middle"
    opacity="0.7"
    letter-spacing="3">natalia-melkher.vercel.app</text>

  <!-- Falling petals -->
  <g opacity="0.5">
    <ellipse cx="350"  cy="170" rx="6" ry="10" fill="#fda4af" transform="rotate(30,350,170)"/>
    <ellipse cx="520"  cy="130" rx="5" ry="8"  fill="#fde68a" transform="rotate(-20,520,130)"/>
    <ellipse cx="750"  cy="150" rx="6" ry="10" fill="#c4b5fd" transform="rotate(15,750,150)"/>
    <ellipse cx="870"  cy="190" rx="5" ry="8"  fill="#fda4af" transform="rotate(-35,870,190)"/>
    <ellipse cx="430"  cy="490" rx="6" ry="10" fill="#fde68a" transform="rotate(25,430,490)"/>
    <ellipse cx="780"  cy="510" rx="5" ry="8"  fill="#fda4af" transform="rotate(-15,780,510)"/>
    <ellipse cx="650"  cy="540" rx="6" ry="10" fill="#c4b5fd" transform="rotate(40,650,540)"/>
  </g>
</svg>
